<?xml version="1.0" standalone="no"?>
<!DOCTYPE svg PUBLIC "-//W3C//DTD SVG 20010904//EN"
 "http://www.w3.org/TR/2001/REC-SVG-20010904/DTD/svg10.dtd">
<svg version="1.0" xmlns="http://www.w3.org/2000/svg"
 width="250.000000pt" height="250.000000pt" viewBox="0 0 250.000000 250.000000"
 preserveAspectRatio="xMidYMid meet">
<metadata>
Created by potrace 1.11, written by Peter Selinger 2001-2013
</metadata>
<g transform="translate(0.000000,250.000000) scale(0.100000,-0.100000)"
fill="#000000" stroke="none">
<path d="M1245 2404 c-11 -2 -47 -9 -80 -15 -99 -19 -208 -57 -305 -108 -302
-158 -519 -437 -594 -766 -88 -382 33 -798 312 -1073 125 -123 305 -232 466
-281 75 -23 71 -22 211 -46 40 -7 218 -7 275 0 207 26 419 117 587 253 47 38
47 37 -9 102 l-37 42 -59 -45 c-126 -98 -262 -161 -416 -196 -129 -28 -326
-23 -459 12 -353 94 -617 354 -723 712 -23 79 -27 109 -28 240 -1 175 5 218
45 340 74 221 200 386 404 527 85 59 236 124 330 142 17 4 41 9 55 12 57 13
267 12 340 -2 199 -38 374 -125 518 -258 l58 -55 53 47 53 47 -54 50 c-176
166 -376 269 -598 310 -44 8 -318 15 -345 9z"/>
<path d="M1250 2174 c-100 -17 -104 -18 -184 -48 -298 -113 -529 -387 -582
-691 -4 -22 -8 -49 -10 -60 -7 -33 -5 -197 1 -240 50 -308 237 -566 510 -703
59 -29 172 -68 224 -77 141 -23 254 -23 361 1 14 3 38 7 53 10 44 8 147 49
207 82 62 35 180 120 180 130 -1 4 -21 29 -45 56 l-44 49 -57 -43 c-92 -69
-229 -131 -329 -148 -77 -13 -257 -7 -330 12 -403 103 -659 502 -579 904 121
611 864 845 1311 413 l33 -31 49 43 c27 23 50 46 50 50 2 17 -174 167 -194
167 -4 0 -19 8 -33 18 -15 11 -61 32 -102 49 -66 27 -104 38 -200 59 -52 11
-218 10 -290 -2z"/>
<path d="M1063 1600 c-84 -20 -140 -85 -169 -195 -19 -69 -12 -324 10 -383 37
-103 105 -155 204 -158 85 -3 144 18 186 68 32 37 56 101 56 147 0 18 -6 21
-44 21 -43 0 -44 0 -50 -40 -14 -87 -50 -120 -135 -120 -41 0 -56 5 -82 28
-51 45 -65 107 -63 273 1 124 4 151 23 194 26 60 59 86 116 92 77 9 128 -33
140 -117 l7 -45 44 -1 c42 -1 44 0 44 29 0 147 -134 244 -287 207z"/>
<path d="M1480 1235 l0 -365 45 0 45 0 0 122 0 121 33 43 c17 24 35 44 38 44
5 0 93 -139 123 -195 6 -11 28 -46 49 -77 l37 -58 51 0 c28 0 49 4 47 9 -3 9
-211 343 -234 377 -13 19 -7 30 81 150 53 71 105 140 115 154 11 13 20 28 20
31 0 4 -23 7 -52 6 l-52 -2 -108 -150 c-60 -82 -118 -161 -129 -175 l-20 -25
1 165 c1 91 1 171 0 178 0 8 -16 12 -45 12 l-45 0 0 -365z"/>
</g>
</svg>
